<?xml version="1.0" standalone="no"?><!DOCTYPE svg PUBLIC "-//W3C//DTD SVG 1.1//EN" "http://www.w3.org/Graphics/SVG/1.1/DTD/svg11.dtd"><svg t="1589098751024" class="icon" viewBox="0 0 1024 1024" version="1.1" xmlns="http://www.w3.org/2000/svg" p-id="648" xmlns:xlink="http://www.w3.org/1999/xlink" width="200" height="200"><defs><style type="text/css"></style></defs><path d="M512 832c38.4 0 64-25.6 64-64s-25.6-64-64-64-64 25.6-64 64 25.6 64 64 64z m0-255.99999999l0-320 0 320m0 63.99999999c38.4 0 64-25.6 64-64l0-320c0-38.4-25.6-64-64-64s-64 25.6-64 64L448 576c0 38.4 25.6 64 64 64z" p-id="649"></path><path d="M512 960c-249.59999999 0-448-198.4-448-448S262.4 64 512 64 960 262.4 960 512 761.6 960 512 960m0 64C793.6 1024 1024 793.6 1024 512s-230.4-512-512-512-512 230.4-512 512S230.4 1024 512 1024z" p-id="650"></path></svg>